<svg xmlns="http://www.w3.org/2000/svg" width="931.95" height="72.351"><path fill="#2b0d3d" fill-rule="evenodd" stroke="#8710ba" stroke-linecap="round" stroke-width=".4mm" d="m881.8 1.75 45.8 61.3a29.669 29.669 0 0 1-.146-2.46 26.577 26.577 0 0 1-.004-.44V.8h4.5v70.75h-2.45a2.105 2.105 0 0 1-1.632-.725 2.867 2.867 0 0 1-.218-.275l-46-61.4a30.218 30.218 0 0 1 .135 1.992 25.599 25.599 0 0 1 .015.858v59.55h-4.45V.8h2.5q.692 0 1.091.172a1.368 1.368 0 0 1 .009.003 1.355 1.355 0 0 1 .28.17q.251.194.521.541a5.023 5.023 0 0 1 .049.064ZM245.15.8h42.4v4.25H250.3v28.6h31v4.15h-31v29.5h37.25v4.25h-42.4V.8Zm198.2 0h42.4v4.25H448.5v28.6h31v4.15h-31v29.5h37.25v4.25h-42.4V.8ZM561.8.8h42.4v4.25h-37.25v28.6h31v4.15h-31v29.5h37.25v4.25h-42.4V.8ZM227.05 60l2 2.15q-2.2 2.35-4.8 4.225-2.6 1.875-5.675 3.2a31.598 31.598 0 0 1-4.512 1.539 37.565 37.565 0 0 1-2.238.511 37.599 37.599 0 0 1-4.364.587 47.94 47.94 0 0 1-3.711.138q-7.35 0-13.475-2.575t-10.5-7.3a32.348 32.348 0 0 1-5.639-8.539 38.798 38.798 0 0 1-1.186-2.886 40.115 40.115 0 0 1-2.16-9.439 50.11 50.11 0 0 1-.29-5.461q0-8.05 2.525-14.7a34.424 34.424 0 0 1 4.877-8.838 31.534 31.534 0 0 1 2.223-2.587q4.575-4.775 10.95-7.4a35.084 35.084 0 0 1 10.308-2.46A42.458 42.458 0 0 1 205.15 0q3.85 0 7.05.575a33.435 33.435 0 0 1 4.561 1.144 29.397 29.397 0 0 1 1.414.506Q220.95 3.3 223.4 4.9q2.45 1.6 4.8 3.7l-1.55 2.25a1.303 1.303 0 0 1-.911.574 2.048 2.048 0 0 1-.339.026 1.035 1.035 0 0 1-.306-.051q-.282-.087-.636-.325a4.942 4.942 0 0 1-.208-.149q-.665-.498-1.669-1.223a207.472 207.472 0 0 0-.106-.077 29.9 29.9 0 0 0-.87-.602q-.777-.519-1.73-1.098-1.525-.925-3.625-1.7-2.1-.775-4.85-1.3-2.75-.525-6.25-.525a32.603 32.603 0 0 0-7.833.914 28.358 28.358 0 0 0-4.017 1.311q-5.4 2.225-9.3 6.35a28.032 28.032 0 0 0-5.041 7.514 33.472 33.472 0 0 0-1.034 2.486 34.614 34.614 0 0 0-1.869 7.901 44.064 44.064 0 0 0-.306 5.274q0 7.5 2.15 13.4a31.398 31.398 0 0 0 3.037 6.212 26.319 26.319 0 0 0 2.913 3.763q3.8 4.075 8.975 6.25a28.228 28.228 0 0 0 9.726 2.142 32.782 32.782 0 0 0 1.499.033 49.443 49.443 0 0 0 3.381-.109q1.814-.125 3.394-.391a28.19 28.19 0 0 0 3.7-.871 23.823 23.823 0 0 0 1.775-.629q2.5-1 4.65-2.45a33.778 33.778 0 0 0 3.131-2.399A39.335 39.335 0 0 0 225.2 60.1a4.096 4.096 0 0 1 .236-.176q.123-.084.239-.149a.985.985 0 0 1 .336-.111 1.281 1.281 0 0 1 .189-.014 1.156 1.156 0 0 1 .839.34 1.378 1.378 0 0 1 .011.01ZM41.55 7.1l-1.2 2.3a1.914 1.914 0 0 1-.311.44 1.32 1.32 0 0 1-.989.41 1.252 1.252 0 0 1-.431-.085q-.386-.143-.868-.521a7.235 7.235 0 0 1-.376-.319 14.555 14.555 0 0 0-.83-.69q-.824-.639-1.945-1.36-1.5-.964-3.642-1.799a31.778 31.778 0 0 0-.733-.276q-2.157-.78-5.142-.919a28.645 28.645 0 0 0-1.333-.031 22.866 22.866 0 0 0-3.379.238 16.597 16.597 0 0 0-3.396.862 15.527 15.527 0 0 0-2.971 1.479 12.759 12.759 0 0 0-1.929 1.521q-1.975 1.9-3 4.4Q8.05 15.25 8.05 18a14.054 14.054 0 0 0 .214 2.525q.277 1.513.91 2.735a8.177 8.177 0 0 0 .401.69 13.618 13.618 0 0 0 3.64 3.738 15.743 15.743 0 0 0 .385.262 24.646 24.646 0 0 0 3.757 2.021 29.584 29.584 0 0 0 1.918.754Q22.45 31.85 25.8 32.95q3.35 1.1 6.525 2.425a23.999 23.999 0 0 1 4.714 2.599A21.837 21.837 0 0 1 38 38.7q2.5 2 4.025 4.925Q43.55 46.55 43.55 50.9a23.05 23.05 0 0 1-1.296 7.759 21.975 21.975 0 0 1-.229.616Q40.5 63.2 37.6 66.1a20.128 20.128 0 0 1-5.447 3.844 24.046 24.046 0 0 1-1.653.731 23.114 23.114 0 0 1-5.406 1.398 30.528 30.528 0 0 1-4.194.277q-6.815 0-11.781-2.345a20.632 20.632 0 0 1-.269-.13Q3.8 67.4 0 63.1l1.4-2.2q.6-.75 1.4-.75.373 0 .919.414a4.925 4.925 0 0 1 .231.186 158.915 158.915 0 0 1 .567.489l.537.466a323.78 323.78 0 0 1 .596.52 28.404 28.404 0 0 0 .952.795q.495.397 1.062.82a49.671 49.671 0 0 0 .386.285 17.837 17.837 0 0 0 1.717 1.106 22.879 22.879 0 0 0 1.533.794q1.85.875 4.25 1.475 2.363.591 5.355.6a30.872 30.872 0 0 0 .095 0q4.2 0 7.5-1.275t5.575-3.475q2.275-2.2 3.475-5.225a17.327 17.327 0 0 0 1.198-6.206 19.699 19.699 0 0 0 .002-.269 15.178 15.178 0 0 0-.214-2.626q-.263-1.493-.847-2.707a8.493 8.493 0 0 0-.464-.842Q35.7 43.05 33.2 41.425a24.537 24.537 0 0 0-3.757-1.986 29.546 29.546 0 0 0-1.918-.739Q24.35 37.6 21 36.55q-3.35-1.05-6.525-2.35a22.783 22.783 0 0 1-4.959-2.769 21.059 21.059 0 0 1-.716-.556 15.215 15.215 0 0 1-4.019-5.038 16.856 16.856 0 0 1-.006-.012 13.247 13.247 0 0 1-1.095-3.171q-.321-1.482-.402-3.204a25.372 25.372 0 0 1-.028-1.2q0-3.55 1.35-6.85t3.95-5.825q2.6-2.525 6.425-4.05A21.059 21.059 0 0 1 19.896.252 27.665 27.665 0 0 1 23.7 0q5.5 0 9.875 1.75a23.284 23.284 0 0 1 7.063 4.479 27.179 27.179 0 0 1 .912.871ZM396.1 39.55h-9.25v32h-5.1V.8h18.05a51.141 51.141 0 0 1 6.4.374q7.386.934 11.707 4.203a15.73 15.73 0 0 1 .193.148q6.05 4.725 6.05 13.875a20.351 20.351 0 0 1-.52 4.676 17.382 17.382 0 0 1-.88 2.724q-1.4 3.35-4.025 5.875a20.625 20.625 0 0 1-4.542 3.282 24.591 24.591 0 0 1-1.783.868 25.927 25.927 0 0 1-4.996 1.592 32.553 32.553 0 0 1-3.354.533 7.798 7.798 0 0 1 1.691 1.442 9.319 9.319 0 0 1 .459.558l24.35 30.6h-4.45a3.572 3.572 0 0 1-.657-.057 2.561 2.561 0 0 1-.718-.243q-.474-.247-.931-.766a5.436 5.436 0 0 1-.194-.234l-22.65-28.7q-.738-.955-1.571-1.42a3.705 3.705 0 0 0-.254-.13 3.753 3.753 0 0 0-.694-.232q-.906-.218-2.331-.218ZM612.15.8h54.95v4.35h-24.85v66.4h-5.1V5.15h-25V.8Zm88.35 0h54.95v4.35H730.6v66.4h-5.1V5.15h-25V.8ZM136.15.8l28.95 70.75h-3.95a2.142 2.142 0 0 1-.518-.059 1.561 1.561 0 0 1-.632-.316 2.397 2.397 0 0 1-.581-.723 2.926 2.926 0 0 1-.119-.252l-8.35-20.55H116.2l-8.3 20.55a2.094 2.094 0 0 1-.551.822 2.563 2.563 0 0 1-.149.128q-.5.4-1.2.4h-3.9L131.05.8h5.1Zm193.9 70.75h-25.8V.8h25.8a40.355 40.355 0 0 1 8.278.819A33.56 33.56 0 0 1 343.8 3.25q6.2 2.45 10.65 7.05a31.069 31.069 0 0 1 5.999 8.957 36.759 36.759 0 0 1 .901 2.193 38.262 38.262 0 0 1 2.105 8.813 48.732 48.732 0 0 1 .345 5.887q0 8.2-2.45 14.75a33.429 33.429 0 0 1-4.077 7.758 29.644 29.644 0 0 1-2.823 3.392q-4.45 4.6-10.65 7.05t-13.75 2.45Zm529.896-26.772a47.438 47.438 0 0 0 .754-8.628 49.556 49.556 0 0 0-.29-5.428 39.834 39.834 0 0 0-2.16-9.397 38.269 38.269 0 0 0-.901-2.237A32.412 32.412 0 0 0 851.35 9.9q-4.45-4.75-10.65-7.325a32.292 32.292 0 0 0-5.287-1.673A38.354 38.354 0 0 0 826.95 0a40.454 40.454 0 0 0-3.256.129A33.714 33.714 0 0 0 813.3 2.6q-6.2 2.6-10.65 7.325t-6.925 11.4a38.001 38.001 0 0 0-1.692 6.123 46.526 46.526 0 0 0-.783 8.702 49.529 49.529 0 0 0 .292 5.458 39.51 39.51 0 0 0 2.183 9.417 38.363 38.363 0 0 0 .998 2.435 32.347 32.347 0 0 0 5.927 8.965q4.45 4.725 10.65 7.3a32.34 32.34 0 0 0 4.826 1.57 37.51 37.51 0 0 0 8.824 1.005 41.187 41.187 0 0 0 4.14-.203 33.756 33.756 0 0 0 9.61-2.372q6.2-2.575 10.65-7.3t6.9-11.4a38.291 38.291 0 0 0 1.696-6.247ZM78.15 43.05H65v28.5h-5.1V.8h18.25a45.382 45.382 0 0 1 7.018.506q7.359 1.155 11.757 4.944a17.7 17.7 0 0 1 5.811 10.168 26.717 26.717 0 0 1 .514 5.382 21.86 21.86 0 0 1-.779 5.91 19.487 19.487 0 0 1-.946 2.64q-1.725 3.9-4.975 6.725a21.844 21.844 0 0 1-5.13 3.294 27.12 27.12 0 0 1-2.77 1.106 29.207 29.207 0 0 1-5.778 1.295 38.278 38.278 0 0 1-4.722.28Zm444.05 0h-13.15v28.5h-5.1V.8h18.25a45.382 45.382 0 0 1 7.018.506q7.359 1.155 11.757 4.944a17.7 17.7 0 0 1 5.811 10.168 26.717 26.717 0 0 1 .514 5.382 21.86 21.86 0 0 1-.779 5.91 19.487 19.487 0 0 1-.946 2.64q-1.725 3.9-4.975 6.725a21.844 21.844 0 0 1-5.13 3.294 27.12 27.12 0 0 1-2.77 1.106 29.207 29.207 0 0 1-5.778 1.295 38.278 38.278 0 0 1-4.722.28ZM330.05 4.95H309.4V67.4h20.65a33.817 33.817 0 0 0 7.016-.701A28.15 28.15 0 0 0 341.7 65.3q5.25-2.1 8.975-6.1a26.331 26.331 0 0 0 4.489-6.679 32.233 32.233 0 0 0 1.286-3.121 34.963 34.963 0 0 0 1.657-7.04 46.953 46.953 0 0 0 .393-6.21 45.677 45.677 0 0 0-.505-6.948 34.457 34.457 0 0 0-1.545-6.252 30.049 30.049 0 0 0-2.93-6.104 25.245 25.245 0 0 0-2.845-3.696q-3.725-4-8.975-6.1a29.407 29.407 0 0 0-7.951-1.914 36.124 36.124 0 0 0-3.699-.186Zm525.35 31.2q0-7.4-2.05-13.3a31.068 31.068 0 0 0-2.93-6.22 26.024 26.024 0 0 0-2.845-3.78q-3.725-4.1-8.975-6.275a28.647 28.647 0 0 0-8.141-2.002 35.024 35.024 0 0 0-3.509-.173 31.714 31.714 0 0 0-7.367.829 27.194 27.194 0 0 0-4.158 1.346q-5.225 2.175-9 6.275a27.191 27.191 0 0 0-4.628 6.993 33.168 33.168 0 0 0-1.222 3.007 36.036 36.036 0 0 0-1.733 7.536 46.799 46.799 0 0 0-.342 5.764 45.863 45.863 0 0 0 .519 7.057 34.924 34.924 0 0 0 1.556 6.268 30.714 30.714 0 0 0 3.063 6.351 26.11 26.11 0 0 0 2.787 3.624q3.775 4.1 9 6.25 5.225 2.15 11.525 2.15a33.003 33.003 0 0 0 7.105-.738A27.635 27.635 0 0 0 838.6 65.7q5.25-2.15 8.975-6.25a27.326 27.326 0 0 0 4.568-6.979 33.362 33.362 0 0 0 1.207-2.996 35.973 35.973 0 0 0 1.685-7.319 47.51 47.51 0 0 0 .365-6.006ZM686.35.8v70.75h-5.15V.8h5.15Zm88.35 0v70.75h-5.15V.8h5.15ZM65 4.85v34.1h13.15q4.7 0 8.4-1.3a20.228 20.228 0 0 0 3.807-1.778 16.726 16.726 0 0 0 2.468-1.822q2.575-2.3 3.95-5.425a16.445 16.445 0 0 0 1.348-5.795 19.29 19.29 0 0 0 .027-1.03 21.112 21.112 0 0 0-.594-5.159 14.151 14.151 0 0 0-4.431-7.391 15.828 15.828 0 0 0-5.34-3.007Q83.747 4.85 78.15 4.85H65Zm444.05 0v34.1h13.15q4.7 0 8.4-1.3a20.228 20.228 0 0 0 3.807-1.778 16.726 16.726 0 0 0 2.468-1.822q2.575-2.3 3.95-5.425a16.445 16.445 0 0 0 1.348-5.795 19.29 19.29 0 0 0 .027-1.03 21.112 21.112 0 0 0-.594-5.159 14.151 14.151 0 0 0-4.431-7.391 15.828 15.828 0 0 0-5.34-3.007Q527.797 4.85 522.2 4.85h-13.15Zm-376.85 5.3-14.45 35.7h31.7L135 10.1q-.35-.85-.7-1.925-.35-1.075-.7-2.275a83.006 83.006 0 0 1-.35 1.169 71.399 71.399 0 0 1-.35 1.106 42.16 42.16 0 0 1-.35 1.032 33.288 33.288 0 0 1-.35.943Zm254.65-5.3v30.9h12.3a33.688 33.688 0 0 0 4.456-.281 25.294 25.294 0 0 0 3.969-.844 20.507 20.507 0 0 0 3.536-1.419 16.115 16.115 0 0 0 2.764-1.806q2.575-2.1 3.925-5.05a14.883 14.883 0 0 0 1.231-4.519 18.604 18.604 0 0 0 .119-2.131 18.267 18.267 0 0 0-.483-4.337A11.668 11.668 0 0 0 414.2 8.5a16.349 16.349 0 0 0-4.765-2.363Q405.411 4.85 399.8 4.85h-12.95Z" font-size="12" style="stroke:#673ab7;stroke-width:.4mm;fill:#2b0d3d" vector-effect="non-scaling-stroke"/></svg>